<?xml version="1.0" standalone="no"?>
<!DOCTYPE svg PUBLIC "-//W3C//DTD SVG 20010904//EN"
 "http://www.w3.org/TR/2001/REC-SVG-20010904/DTD/svg10.dtd">
<svg version="1.0" xmlns="http://www.w3.org/2000/svg"
 width="600.000000pt" height="600.000000pt" viewBox="0 0 600.000000 600.000000"
 preserveAspectRatio="xMidYMid meet">
<metadata>
Created by potrace 1.14, written by Peter Selinger 2001-2017
</metadata>
<g transform="translate(0.000000,600.000000) scale(0.100000,-0.100000)"
fill="#000000" stroke="none">
<path d="M2897 5955 c-1 -1 -47 -5 -102 -9 -106 -7 -153 -11 -223 -21 -51 -7
-65 -10 -180 -31 -47 -9 -250 -64 -322 -87 -235 -77 -481 -197 -725 -356 -22
-14 -42 -28 -45 -31 -3 -3 -41 -32 -85 -65 -199 -148 -410 -358 -567 -565 -81
-108 -148 -206 -148 -219 0 -5 -4 -11 -8 -13 -10 -4 -87 -138 -139 -243 -86
-171 -183 -431 -218 -585 -28 -121 -29 -127 -50 -250 -43 -258 -51 -600 -20
-827 3 -18 7 -50 10 -70 3 -21 7 -49 10 -63 2 -14 7 -42 10 -64 3 -21 7 -41 9
-45 2 -3 7 -24 10 -46 9 -55 40 -168 83 -300 365 -1121 1418 -1939 2588 -2012
178 -11 463 -5 550 11 11 2 45 7 75 11 30 4 64 9 75 11 11 2 45 8 75 14 241
44 518 139 758 260 329 166 657 417 873 670 24 29 51 60 61 69 72 71 267 363
355 531 121 232 242 574 278 785 2 11 8 47 14 80 6 33 13 83 16 110 4 28 8 61
10 74 26 156 20 536 -10 721 -2 14 -7 45 -10 70 -11 83 -16 104 -45 225 -93
381 -247 714 -477 1036 -36 52 -69 96 -72 99 -3 3 -26 30 -51 60 -67 83 -221
243 -297 310 -402 354 -834 574 -1353 691 -52 11 -106 22 -120 24 -27 2 -110
14 -149 20 -64 11 -434 27 -444 20z m323 -159 c105 -9 223 -25 302 -42 37 -7
81 -16 97 -19 53 -9 271 -74 335 -100 34 -14 66 -25 69 -25 6 0 82 -34 197
-88 65 -30 214 -115 285 -161 438 -284 790 -684 1011 -1146 140 -295 229 -603
259 -905 3 -30 8 -73 10 -95 6 -49 6 -375 0 -430 -20 -203 -22 -211 -46 -330
-11 -55 -22 -110 -25 -123 -12 -59 -80 -269 -121 -372 -140 -355 -344 -663
-623 -940 -157 -156 -169 -167 -305 -269 -84 -63 -126 -91 -139 -91 -3 0 -5
17 -4 38 1 68 1 67 -61 80 -99 21 -161 79 -178 169 -4 21 -8 205 -8 408 l0
370 94 175 c52 96 111 207 131 245 125 235 204 384 270 510 29 55 70 131 92
168 21 38 38 70 38 73 0 2 23 43 51 91 113 192 188 278 277 315 52 22 54 24
54 83 0 14 0 36 -1 50 l-1 25 -415 0 -415 0 0 -69 0 -69 33 -6 c50 -9 92 -40
111 -81 24 -49 17 -163 -14 -255 -27 -81 -443 -922 -450 -912 -4 4 -20 39 -37
77 -50 111 -69 154 -201 445 -203 449 -228 518 -216 598 3 20 13 48 23 62 21
30 88 70 116 70 18 0 20 6 18 52 -1 29 -2 61 -2 71 -1 16 -34 17 -551 17 -517
0 -550 -1 -551 -17 -1 -28 -1 -86 0 -105 1 -12 15 -21 45 -29 95 -24 169 -138
369 -569 19 -41 59 -127 90 -190 30 -63 73 -155 97 -205 23 -49 73 -154 111
-233 38 -79 69 -145 69 -147 0 -2 27 -59 60 -127 l60 -123 -1 -356 c-2 -390
-10 -462 -60 -515 -27 -30 -95 -62 -148 -70 -20 -3 -38 -8 -40 -10 -2 -2 -4
-33 -5 -69 l-2 -65 31 -1 c16 0 265 -1 552 -1 579 0 545 4 432 -61 -292 -167
-709 -312 -990 -342 -30 -4 -59 -8 -66 -10 -26 -9 -235 -19 -363 -18 -125 1
-260 8 -320 19 -14 2 -45 7 -70 10 -45 6 -62 9 -110 19 -14 2 -37 7 -51 9
-108 18 -365 99 -519 164 -238 100 -548 291 -714 441 -250 225 -390 383 -537
611 -177 272 -334 641 -385 905 -34 175 -36 190 -49 285 -23 168 -23 516 0
680 1 14 6 45 10 70 49 337 164 673 336 980 35 61 148 236 172 266 9 10 35 44
59 75 309 403 765 732 1262 911 123 44 338 102 436 118 36 5 76 12 90 15 30 5
86 11 200 20 47 4 86 8 87 9 5 4 283 -2 353 -8z"/>
<path d="M1543 5372 c-20 -3 -22 -8 -20 -68 l2 -65 69 -29 c100 -42 132 -85
143 -188 8 -79 8 -2053 0 -2124 -13 -115 -47 -159 -154 -199 l-62 -23 0 -68 1
-68 556 2 557 3 2 62 c3 56 -4 75 -27 78 -73 11 -142 45 -173 87 -43 57 -49
121 -50 549 -2 348 0 399 13 400 8 0 42 0 75 -1 449 -10 625 13 848 113 37 16
67 34 67 38 0 5 6 9 13 9 21 1 140 103 190 165 238 293 242 816 10 1060 -45
48 -117 105 -131 105 -6 0 -12 4 -14 8 -4 11 -102 56 -173 80 -116 39 -218 57
-390 67 -109 7 -1310 13 -1352 7z m1217 -246 c191 -31 306 -141 351 -334 18
-76 21 -110 21 -248 2 -356 -120 -530 -401 -575 -75 -12 -327 -16 -337 -6 -5
5 -10 1082 -5 1154 1 6 9 13 19 15 30 6 305 1 352 -6z"/>
</g>
</svg>
